<mxfile host="app.diagrams.net" modified="2024-02-28T16:50:05.605Z" agent="Mozilla/5.0 (Macintosh; Intel Mac OS X 10_15_7) AppleWebKit/537.36 (KHTML, like Gecko) Chrome/122.0.0.0 Safari/537.36" etag="GCIA8x-H-RKeUBJ_QgHO" version="23.1.7" type="device">
  <diagram name="Page-1" id="211iCi8jAc_Dg6tPmjOf">
    <mxGraphModel dx="1050" dy="1679" grid="1" gridSize="10" guides="1" tooltips="1" connect="1" arrows="1" fold="1" page="1" pageScale="1" pageWidth="827" pageHeight="1169" math="0" shadow="0">
      <root>
        <mxCell id="0" />
        <mxCell id="1" parent="0" />
        <mxCell id="AO-rVQw0fszTiXjK1kSg-1" value="" style="rounded=0;whiteSpace=wrap;html=1;fillColor=#dae8fc;strokeColor=#6c8ebf;gradientColor=#7ea6e0;gradientDirection=north;" vertex="1" parent="1">
          <mxGeometry x="120" y="100" width="600" height="300" as="geometry" />
        </mxCell>
        <mxCell id="AO-rVQw0fszTiXjK1kSg-4" value="" style="verticalLabelPosition=bottom;verticalAlign=top;html=1;shape=mxgraph.basic.flash;rotation=30;fillColor=#e3c800;strokeColor=#B09500;fontColor=#000000;" vertex="1" parent="1">
          <mxGeometry x="292.5" y="37.99" width="120" height="330" as="geometry" />
        </mxCell>
        <mxCell id="AO-rVQw0fszTiXjK1kSg-2" value="" style="ellipse;shape=cloud;whiteSpace=wrap;html=1;" vertex="1" parent="1">
          <mxGeometry x="40" y="-10" width="400" height="160" as="geometry" />
        </mxCell>
        <mxCell id="AO-rVQw0fszTiXjK1kSg-3" value="" style="ellipse;shape=cloud;whiteSpace=wrap;html=1;" vertex="1" parent="1">
          <mxGeometry x="250" y="-10" width="530" height="160" as="geometry" />
        </mxCell>
        <mxCell id="AO-rVQw0fszTiXjK1kSg-5" value="" style="ellipse;whiteSpace=wrap;html=1;aspect=fixed;fillColor=#007FFF;strokeColor=#6c8ebf;gradientColor=#000099;" vertex="1" parent="1">
          <mxGeometry x="160" y="320" width="80" height="80" as="geometry" />
        </mxCell>
        <mxCell id="AO-rVQw0fszTiXjK1kSg-6" value="" style="triangle;whiteSpace=wrap;html=1;rotation=-90;fillColor=#647687;strokeColor=#314354;fontColor=#ffffff;" vertex="1" parent="1">
          <mxGeometry x="380" y="330" width="60" height="80" as="geometry" />
        </mxCell>
        <mxCell id="AO-rVQw0fszTiXjK1kSg-7" value="" style="triangle;whiteSpace=wrap;html=1;rotation=-90;fillColor=#647687;fontColor=#ffffff;strokeColor=#314354;" vertex="1" parent="1">
          <mxGeometry x="540" y="330" width="60" height="80" as="geometry" />
        </mxCell>
        <mxCell id="AO-rVQw0fszTiXjK1kSg-8" value="&lt;font style=&quot;font-size: 100px;&quot; face=&quot;Lucida Console&quot;&gt;Laser Strike&lt;/font&gt;" style="text;html=1;align=center;verticalAlign=middle;whiteSpace=wrap;rounded=0;" vertex="1" parent="1">
          <mxGeometry x="135" y="130" width="570" height="30" as="geometry" />
        </mxCell>
        <mxCell id="AO-rVQw0fszTiXjK1kSg-9" value="&lt;font style=&quot;font-size: 50px;&quot;&gt;Start Game&lt;/font&gt;" style="text;html=1;align=center;verticalAlign=middle;whiteSpace=wrap;rounded=0;" vertex="1" parent="1">
          <mxGeometry x="269" y="200" width="290" height="30" as="geometry" />
        </mxCell>
        <mxCell id="AO-rVQw0fszTiXjK1kSg-10" value="Press space to start" style="text;html=1;align=center;verticalAlign=middle;whiteSpace=wrap;rounded=0;" vertex="1" parent="1">
          <mxGeometry x="350" y="240" width="140" height="30" as="geometry" />
        </mxCell>
      </root>
    </mxGraphModel>
  </diagram>
</mxfile>
